#!OML:ASF E:\motion texture\Top Level 1\Subject 1\Session 1\male.ASF
:FULLY-SPECIFIED
:DEGREES
796
root -48.2068 17.7002 5.02916 204.36 -85.244 -199.25
lowerback -0.649719 -0.730626 -2.08865
upperback -0.577558 -0.967727 1.13339
thorax -0.173344 -0.477402 2.32742
lowerneck -19.6765 -3.05456 -5.63093
upperneck 11.1304 -4.13399 9.17048
head 6.93482 -1.43612 3.43536
rclavicle -8.05078e-015 3.57812e-015
rhumerus -43.1876 -33.2149 -51.0897
rradius 13.7851
rwrist 27.3805
rhand -16.7634 -39.991
rfingers 7.12502
rthumb 9.46366 -429.759
lclavicle -8.05078e-015 3.57812e-015
lhumerus -34.9066 25.6058 66.1167
lradius 22.3479
lwrist -33.24
lhand -11.0211 28.7825
lfingers 7.12502
lthumb 15.0002 -301.781
rfemur -33.0171 -4.95658 13.9645
rtibia 33.2339
rfoot -6.22556 -10.4341
rtoes 14.9646
lfemur -0.844558 -4.71629 -21.3239
ltibia 17.407
lfoot -16.6836 2.92854
ltoes -8.56158
797
root -48.324 17.6825 4.98373 204.844 -85.3063 -199.734
lowerback -0.545751 -0.731711 -2.06127
upperback -0.620326 -0.97124 1.10035
thorax -0.276234 -0.477535 2.27994
lowerneck -19.6769 -3.11083 -5.66219
upperneck 11.094 -4.19898 9.17056
head 6.92881 -1.46921 3.43231
rclavicle 3.05631e-015 9.93923e-015
rhumerus -44.2115 -33.6607 -50.0836
rradius 13.7049
rwrist 27.8361
rhand -16.6247 -39.7903
rfingers 7.12502
rthumb 9.59748 -429.552
lclavicle 3.05631e-015 9.93923e-015
lhumerus -35.6175 25.672 65.4314
lradius 22.4951
lwrist -33.1218
lhand -10.8801 28.8748
lfingers 7.12502
lthumb 15.136 -301.699
rfemur -33.0171 -4.95658 13.9645
rtibia 33.2339
rfoot -6.22556 -10.4341
rtoes 14.9646
lfemur -0.641241 -4.83055 -21.2738
ltibia 17.8648
lfoot -17.0173 3.09132
ltoes -10.0101
798
root -48.4444 17.665 4.93858 206.699 -85.3494 -201.669
lowerback -0.47381 -0.738173 -2.13042
upperback -0.518271 -0.979849 1.03297
thorax -0.21155 -0.48319 2.24968
lowerneck -19.8285 -3.16868 -5.79472
upperneck 10.9412 -4.24774 9.30603
head 6.91476 -1.4857 3.4914
rclavicle 1.63997e-015 7.15625e-015
rhumerus -45.0052 -34.3745 -49.1089
rradius 13.4766
rwrist 28.5062
rhand -16.5425 -39.5345
rfingers 7.12502
rthumb 9.6768 -429.292
lclavicle 1.63997e-015 7.15625e-015
lhumerus -36.008 25.922 64.8503
lradius 22.5233
lwrist -33.0585
lhand -10.7178 28.9483
lfingers 7.12502
lthumb 15.2923 -301.637
rfemur -33.0171 -4.95658 13.9645
rtibia 33.2339
rfoot -6.22556 -10.4341
rtoes 14.9646
lfemur -0.377222 -4.97432 -21.398
ltibia 18.4235
lfoot -17.3769 3.26196
ltoes -9.76101
799
root -48.5771 17.6491 4.8946 211.463 -85.3983 -206.609
lowerback -0.392107 -0.788303 -2.35162
upperback -0.469714 -1.04695 0.897964
thorax -0.202537 -0.516557 2.23579
lowerneck -19.9432 -3.24656 -5.77202
upperneck 10.9903 -4.34057 9.20804
head 6.95371 -1.53384 3.44399
rclavicle -1.39895e-014 -1.19271e-015
rhumerus -45.8051 -34.5742 -48.444
rradius 13.3629
rwrist 28.6861
rhand -16.4126 -39.4836
rfingers 7.12502
rthumb 9.80206 -429.235
lclavicle -1.39895e-014 -1.19271e-015
lhumerus -36.6608 25.9748 64.2586
lradius 22.7451
lwrist -32.7932
lhand -10.7907 28.8527
lfingers 7.12502
lthumb 15.2221 -301.727
rfemur -33.0171 -4.95658 13.9645
rtibia 33.2339
rfoot -6.22556 -10.4341
rtoes 14.9646
lfemur 0.041537 -5.19916 -21.8573
ltibia 18.9362
lfoot -17.5796 3.41377
ltoes -11.5387
800
root -48.6952 17.6303 4.83513 211.487 -85.4406 -206.67
lowerback -0.248497 -0.762965 -2.43362
upperback -0.531472 -1.01682 0.914407
thorax -0.346338 -0.498579 2.30158
lowerneck -19.751 -3.28817 -5.97781
upperneck 10.8338 -4.36152 9.34903
head 6.88116 -1.54779 3.52114
rclavicle -3.75206e-015 3.18055e-015
rhumerus -46.7766 -34.8515 -47.638
rradius 13.3762
rwrist 29.0367
rhand -16.2393 -39.3996
rfingers 7.12502
rthumb 9.96928 -429.144
lclavicle -3.75206e-015 3.18055e-015
lhumerus -37.3703 26.1199 63.6353
lradius 22.9123
lwrist -32.6063
lhand -11.0721 28.7237
lfingers 7.12502
lthumb 14.9511 -301.836
rfemur -33.0171 -4.95658 13.9645
rtibia 33.2339
rfoot -6.22556 -10.4341
rtoes 14.9646
lfemur 0.128109 -5.30299 -21.6695
ltibia 19.685
lfoot -17.8816 3.60842
ltoes -12.3156
801
root -48.8215 17.6144 4.78333 215.254 -85.599 -210.609
lowerback -0.0291564 -0.790404 -2.62296
upperback -0.524486 -1.05867 0.884025
thorax -0.456961 -0.517129 2.38005
lowerneck -19.8046 -3.36289 -6.14104
upperneck 10.8181 -4.41273 9.34688
head 6.89227 -1.57787 3.54081
rclavicle -7.00716e-015 1.59028e-014
rhumerus -47.5458 -35.0232 -46.9876
rradius 13.2901
rwrist 29.0973
rhand -16.2064 -39.3679
rfingers 7.12502
rthumb 10.001 -429.11
lclavicle -7.00716e-015 1.59028e-014
lhumerus -38.0319 26.259 63.1618
lradius 23.2087
lwrist -32.3797
lhand -11.0861 28.863
lfingers 7.12502
lthumb 14.9376 -301.696
rfemur -33.0171 -4.95658 13.9645
rtibia 33.2339
rfoot -6.22556 -10.4341
rtoes 14.9646
lfemur 0.351994 -5.52672 -21.8575
ltibia 20.4528
lfoot -18.1417 3.68571
ltoes -13.2481
802
root -48.95 17.6005 4.72598 217.371 -85.8742 -212.868
lowerback -0.110808 -0.847056 -2.56272
upperback -0.383224 -1.13062 0.840738
thorax -0.264023 -0.557684 2.29902
lowerneck -19.805 -3.44126 -6.21844
upperneck 10.6579 -4.49213 9.38121
head 6.8496 -1.61887 3.55379
rclavicle -6.18717e-015 0
rhumerus -48.2538 -35.4075 -46.5245
rradius 13.3475
rwrist 29.3105
rhand -16.0545 -39.3332
rfingers 7.12502
rthumb 10.1476 -429.068
lclavicle -6.18717e-015 0
lhumerus -38.4299 26.5011 62.6489
lradius 23.3629
lwrist -32.1173
lhand -11.2963 28.7933
lfingers 7.12502
lthumb 14.735 -301.75
rfemur -33.0171 -4.95658 13.9645
rtibia 33.2339
rfoot -6.22556 -10.4341
rtoes 14.9646
lfemur 0.520604 -5.72229 -21.7389
ltibia 21.3024
lfoot -18.3394 3.69265
ltoes -14.5036
803
root -49.0695 17.5877 4.66638 217.743 -86.2718 -213.308
lowerback 0.0439241 -0.900058 -2.38584
upperback -0.408045 -1.20486 0.900348
thorax -0.374123 -0.593509 2.26384
lowerneck -19.906 -3.51739 -6.15141
upperneck 10.7125 -4.57165 9.14996
head 6.88181 -1.67 3.45653
rclavicle -4.77083e-015 1.98785e-015
rhumerus -48.9963 -35.7071 -45.9518
rradius 13.2471
rwrist 29.5084
rhand -16.1245 -39.2172
rfingers 7.12502
rthumb 10.08 -428.956
lclavicle -4.77083e-015 1.98785e-015
lhumerus -39.1323 26.6367 62.1995
lradius 23.8329
lwrist -31.7216
lhand -11.5848 28.7159
lfingers 7.12502
lthumb 14.4571 -301.808
rfemur -33.0171 -4.95658 13.9645
rtibia 33.2339
rfoot -6.22556 -10.4341
rtoes 14.9646
lfemur 0.738697 -6.37354 -21.4729
ltibia 21.8449
lfoot -18.2536 3.90582
ltoes -15.3277
804
root -49.2066 17.5791 4.61367 221.365 -86.5973 -217.125
lowerback -0.0177234 -0.959988 -2.2982
upperback -0.263291 -1.28211 0.876187
thorax -0.189293 -0.636334 2.18707
lowerneck -19.8028 -3.56946 -6.33594
upperneck 10.4526 -4.59752 9.26316
head 6.7902 -1.68696 3.51946
rclavicle -4.24902e-015 1.98785e-015
rhumerus -49.6107 -36.1394 -45.4628
rradius 13.1241
rwrist 29.7034
rhand -16.0924 -39.2508
rfingers 7.12502
rthumb 10.111 -428.988
lclavicle -4.24902e-015 1.98785e-015
lhumerus -39.5428 27.049 61.7475
lradius 23.991
lwrist -31.5717
lhand -11.4467 28.9412
lfingers 7.12502
lthumb 14.5901 -301.592
rfemur -33.0171 -4.95658 13.9645
rtibia 33.2339
rfoot -6.22556 -10.4341
rtoes 14.9646
lfemur 1.03557 -6.843 -21.5203
ltibia 22.6258
lfoot -18.2953 4.01318
ltoes -16.8924
805
root -49.3201 17.5747 4.54883 216.098 -86.9232 -211.858
lowerback 0.234387 -0.917036 -1.97989
upperback -0.428986 -1.22993 1.01673
thorax -0.506755 -0.605657 2.15913
lowerneck -19.6257 -3.61538 -6.43629
upperneck 10.4786 -4.64175 9.2621
head 6.7752 -1.71597 3.53112
rclavicle 1.76173e-014 -4.77083e-015
rhumerus -50.5771 -36.4559 -44.7168
rradius 13.0907
rwrist 30.1137
rhand -16.1723 -39.0875
rfingers 7.12502
rthumb 10.0339 -428.828
lclavicle 1.76173e-014 -4.77083e-015
lhumerus -40.3588 27.3459 61.1754
lradius 24.2788
lwrist -31.3318
lhand -11.57 29.0547
lfingers 7.12502
lthumb 14.4713 -301.47
rfemur -33.0171 -4.95658 13.9645
rtibia 33.2339
rfoot -6.22556 -10.4341
rtoes 14.9646
lfemur 0.800348 -7.06411 -20.7993
ltibia 23.7751
lfoot -18.3031 4.19779
ltoes -18.2592
806
root -49.4601 17.5809 4.50174 210.226 -87.3967 -206.212
lowerback 0.186657 -0.93867 -1.37095
upperback -0.328143 -1.25584 1.14675
thorax -0.385371 -0.62323 1.94876
lowerneck -19.4114 -3.66497 -6.62988
upperneck 10.2631 -4.66055 9.31415
head 6.6777 -1.73664 3.57709
rclavicle -4.14963e-015 8.34896e-015
rhumerus -51.3007 -36.8833 -44.1259
rradius 13.087
rwrist 30.5538
rhand -16.2594 -39.0911
rfingers 7.12502
rthumb 9.94989 -428.836
lclavicle -4.14963e-015 8.34896e-015
lhumerus -40.9795 27.9532 60.653
lradius 24.4439
lwrist -31.2529
lhand -11.7817 29.02
lfingers 7.12502
lthumb 14.2673 -301.49
rfemur -33.0171 -4.95658 13.9645
rtibia 33.2339
rfoot -6.22556 -10.4341
rtoes 14.9646
lfemur 1.07586 -7.40116 -20.3049
ltibia 24.6852
lfoot -18.2253 4.33347
ltoes -20.4675
807
root -49.5875 17.5906 4.4469 200.116 -87.6332 -196.187
lowerback 0.154837 -0.868071 -0.854813
upperback -0.230437 -1.16123 1.29471
thorax -0.278796 -0.579358 1.8089
lowerneck -19.571 -3.76769 -6.63522
upperneck 10.229 -4.75626 9.13407
head 6.69523 -1.79392 3.50598
rclavicle -2.90723e-015 7.95139e-015
rhumerus -51.9403 -37.7097 -43.3272
rradius 12.8388
rwrist 31.3892
rhand -16.3078 -39.1069
rfingers 7.12502
rthumb 9.90322 -428.854
lclavicle -2.90723e-015 7.95139e-015
lhumerus -41.4147 28.5502 60.3027
lradius 24.6527
lwrist -30.9854
lhand -12.0871 29.0796
lfingers 7.12502
lthumb 13.9731 -301.41
rfemur -33.0171 -4.95658 13.9645
rtibia 33.2339
rfoot -6.22556 -10.4341
rtoes 14.9646
lfemur 0.944389 -7.46012 -19.5948
ltibia 25.8792
lfoot -18.043 4.31764
ltoes -21.2529
